<svg width="24" height="24" viewBox="0 0 24 24" fill="none" xmlns="http://www.w3.org/2000/svg">
<path opacity="0.4" d="M21.9999 12C21.9999 17.524 17.5229 22 11.9999 22C6.4769 22 1.9999 17.524 1.9999 12C1.9999 6.478 6.4769 2 11.9999 2C17.5229 2 21.9999 6.478 21.9999 12Z" fill="#15C1E7"/>
<path fill-rule="evenodd" clip-rule="evenodd" d="M12.87 12.6309C12.87 13.1129 12.477 13.5059 11.995 13.5059C11.513 13.5059 11.12 13.1129 11.12 12.6309V8.21094C11.12 7.72894 11.513 7.33594 11.995 7.33594C12.477 7.33594 12.87 7.72894 12.87 8.21094V12.6309ZM11.125 15.8037C11.125 15.3217 11.516 14.9287 11.995 14.9287C12.488 14.9287 12.88 15.3217 12.88 15.8037C12.88 16.2857 12.488 16.6787 12.005 16.6787C11.52 16.6787 11.125 16.2857 11.125 15.8037Z" fill="#15C1E7"/>
</svg>
