<svg width="24" height="24" viewBox="0 0 24 24" fill="none" xmlns="http://www.w3.org/2000/svg">
<path opacity="0.4" d="M2 6.447C2 3.996 4.03024 2 6.52453 2H11.4856C13.9748 2 16 3.99 16 6.437V17.553C16 20.005 13.9698 22 11.4744 22H6.51537C4.02515 22 2 20.01 2 17.563V16.623V6.447Z" fill="#15C1E7"/>
<path d="M21.7789 11.455L18.9331 8.54604C18.639 8.24604 18.1657 8.24604 17.8725 8.54804C17.5804 8.85004 17.5813 9.33704 17.8745 9.63704L19.4337 11.23H17.9388H9.54845C9.13454 11.23 8.79853 11.575 8.79853 12C8.79853 12.426 9.13454 12.77 9.54845 12.77H19.4337L17.8745 14.363C17.5813 14.663 17.5804 15.15 17.8725 15.452C18.0196 15.603 18.2115 15.679 18.4043 15.679C18.5952 15.679 18.787 15.603 18.9331 15.454L21.7789 12.546C21.9201 12.401 22 12.205 22 12C22 11.796 21.9201 11.6 21.7789 11.455Z" fill="#15C1E7"/>
</svg>
