<svg width="24" height="24" viewBox="0 0 24 24" fill="none" xmlns="http://www.w3.org/2000/svg">
<path opacity="0.4" d="M16.3402 1.99976H7.67024C4.28024 1.99976 2.00024 4.37976 2.00024 7.91976V16.0898C2.00024 19.6198 4.28024 21.9998 7.67024 21.9998H16.3402C19.7302 21.9998 22.0002 19.6198 22.0002 16.0898V7.91976C22.0002 4.37976 19.7302 1.99976 16.3402 1.99976Z" fill="#5B5858"/>
<path d="M10.8133 15.2478C10.5893 15.2478 10.3653 15.1628 10.1943 14.9918L7.82132 12.6188C7.47932 12.2768 7.47932 11.7228 7.82132 11.3818C8.16332 11.0398 8.71632 11.0388 9.05832 11.3808L10.8133 13.1358L14.9413 9.00784C15.2833 8.66584 15.8363 8.66584 16.1783 9.00784C16.5203 9.34984 16.5203 9.90384 16.1783 10.2458L11.4323 14.9918C11.2613 15.1628 11.0373 15.2478 10.8133 15.2478Z" fill="#5B5858"/>
</svg>
