<svg width="24" height="24" viewBox="0 0 24 24" fill="none" xmlns="http://www.w3.org/2000/svg">
<path opacity="0.4" d="M8.23907 8.70907V7.36726C8.24923 5.37044 9.92586 3.73939 11.9988 3.73939C13.584 3.73939 15.0065 4.72339 15.5248 6.19541C15.6975 6.65262 16.2056 6.89017 16.6629 6.73213C16.8864 6.66156 17.0693 6.50253 17.1709 6.29381C17.2725 6.08508 17.2929 5.84654 17.2116 5.62787C16.4393 3.46208 14.3461 2 11.9785 2C8.95036 2 6.48115 4.41626 6.46082 7.38714V8.91084L8.23907 8.70907Z" fill="#15C1E7"/>
<path fill-rule="evenodd" clip-rule="evenodd" d="M7.7688 8.71094H16.2312C18.5886 8.71094 20.5 10.5805 20.5 12.8865V17.8243C20.5 20.1303 18.5886 21.9999 16.2312 21.9999H7.7688C5.41136 21.9999 3.5 20.1303 3.5 17.8243V12.8865C3.5 10.5805 5.41136 8.71094 7.7688 8.71094ZM11.9949 17.3284C12.4928 17.3284 12.8891 16.9407 12.8891 16.4537V14.2472C12.8891 13.7701 12.4928 13.3824 11.9949 13.3824C11.5072 13.3824 11.1109 13.7701 11.1109 14.2472V16.4537C11.1109 16.9407 11.5072 17.3284 11.9949 17.3284Z" fill="#15C1E7"/>
</svg>
